<mxfile host="www.draw.io" modified="2023-03-29T18:52:33.429Z" agent="Mozilla/5.0 (Windows NT 10.0; Win64; x64) AppleWebKit/537.36 (KHTML, like Gecko) Chrome/111.0.0.0 Safari/537.36" etag="syhhwFcS5ilCEqyjSec2" version="21.1.2" type="device">
  <diagram name="第 1 页" id="yZqTohcyaF4-MAUcGQ2n">
    <mxGraphModel dx="1221" dy="636" grid="0" gridSize="10" guides="1" tooltips="1" connect="1" arrows="1" fold="1" page="1" pageScale="1" pageWidth="827" pageHeight="1169" math="0" shadow="0">
      <root>
        <mxCell id="0" />
        <mxCell id="1" parent="0" />
        <mxCell id="YqlxQMFtvgsocmcOE6nz-1" value="" style="rounded=0;whiteSpace=wrap;html=1;" vertex="1" parent="1">
          <mxGeometry x="270" y="260" width="120" height="30" as="geometry" />
        </mxCell>
        <mxCell id="YqlxQMFtvgsocmcOE6nz-25" style="edgeStyle=elbowEdgeStyle;rounded=0;orthogonalLoop=1;jettySize=auto;elbow=vertical;html=1;exitX=0.5;exitY=1;exitDx=0;exitDy=0;entryX=0.5;entryY=0;entryDx=0;entryDy=0;" edge="1" parent="1" source="YqlxQMFtvgsocmcOE6nz-2" target="YqlxQMFtvgsocmcOE6nz-14">
          <mxGeometry relative="1" as="geometry" />
        </mxCell>
        <mxCell id="YqlxQMFtvgsocmcOE6nz-2" value="" style="rounded=0;whiteSpace=wrap;html=1;" vertex="1" parent="1">
          <mxGeometry x="250" y="260" width="20" height="30" as="geometry" />
        </mxCell>
        <mxCell id="YqlxQMFtvgsocmcOE6nz-3" value="" style="rounded=0;whiteSpace=wrap;html=1;" vertex="1" parent="1">
          <mxGeometry x="410" y="260" width="120" height="30" as="geometry" />
        </mxCell>
        <mxCell id="YqlxQMFtvgsocmcOE6nz-26" style="edgeStyle=elbowEdgeStyle;rounded=0;orthogonalLoop=1;jettySize=auto;elbow=vertical;html=1;exitX=0.5;exitY=1;exitDx=0;exitDy=0;" edge="1" parent="1" source="YqlxQMFtvgsocmcOE6nz-4">
          <mxGeometry relative="1" as="geometry">
            <mxPoint x="400" y="340" as="targetPoint" />
          </mxGeometry>
        </mxCell>
        <mxCell id="YqlxQMFtvgsocmcOE6nz-4" value="" style="rounded=0;whiteSpace=wrap;html=1;" vertex="1" parent="1">
          <mxGeometry x="390" y="260" width="20" height="30" as="geometry" />
        </mxCell>
        <mxCell id="YqlxQMFtvgsocmcOE6nz-5" value="" style="rounded=0;whiteSpace=wrap;html=1;" vertex="1" parent="1">
          <mxGeometry x="550" y="260" width="120" height="30" as="geometry" />
        </mxCell>
        <mxCell id="YqlxQMFtvgsocmcOE6nz-27" style="edgeStyle=elbowEdgeStyle;rounded=0;orthogonalLoop=1;jettySize=auto;elbow=vertical;html=1;exitX=0.5;exitY=1;exitDx=0;exitDy=0;entryX=0.5;entryY=0;entryDx=0;entryDy=0;" edge="1" parent="1" source="YqlxQMFtvgsocmcOE6nz-6" target="YqlxQMFtvgsocmcOE6nz-14">
          <mxGeometry relative="1" as="geometry" />
        </mxCell>
        <mxCell id="YqlxQMFtvgsocmcOE6nz-6" value="" style="rounded=0;whiteSpace=wrap;html=1;" vertex="1" parent="1">
          <mxGeometry x="530" y="260" width="20" height="30" as="geometry" />
        </mxCell>
        <mxCell id="YqlxQMFtvgsocmcOE6nz-7" value="" style="endArrow=none;dashed=1;html=1;dashPattern=1 3;strokeWidth=2;rounded=0;" edge="1" parent="1">
          <mxGeometry width="50" height="50" relative="1" as="geometry">
            <mxPoint x="680" y="274.5" as="sourcePoint" />
            <mxPoint x="780" y="274.5" as="targetPoint" />
          </mxGeometry>
        </mxCell>
        <mxCell id="YqlxQMFtvgsocmcOE6nz-13" style="edgeStyle=orthogonalEdgeStyle;rounded=0;orthogonalLoop=1;jettySize=auto;html=1;exitX=0;exitY=0.5;exitDx=0;exitDy=0;entryX=0;entryY=0.5;entryDx=0;entryDy=0;" edge="1" parent="1" source="YqlxQMFtvgsocmcOE6nz-8" target="YqlxQMFtvgsocmcOE6nz-2">
          <mxGeometry relative="1" as="geometry" />
        </mxCell>
        <mxCell id="YqlxQMFtvgsocmcOE6nz-8" value="&lt;font style=&quot;font-size: 24px;&quot;&gt;Transmitted signal stream&lt;/font&gt;" style="text;html=1;strokeColor=none;fillColor=none;align=center;verticalAlign=middle;whiteSpace=wrap;rounded=0;" vertex="1" parent="1">
          <mxGeometry x="320" y="196" width="300" height="40" as="geometry" />
        </mxCell>
        <mxCell id="YqlxQMFtvgsocmcOE6nz-9" value="&lt;font style=&quot;font-size: 18px;&quot;&gt;payload data&lt;/font&gt;" style="text;html=1;strokeColor=none;fillColor=none;align=center;verticalAlign=middle;whiteSpace=wrap;rounded=0;" vertex="1" parent="1">
          <mxGeometry x="272.5" y="260" width="115" height="30" as="geometry" />
        </mxCell>
        <mxCell id="YqlxQMFtvgsocmcOE6nz-14" value="&lt;font style=&quot;font-size: 18px;&quot;&gt;cyclic prefix&lt;/font&gt;" style="text;html=1;strokeColor=none;fillColor=none;align=center;verticalAlign=middle;whiteSpace=wrap;rounded=0;" vertex="1" parent="1">
          <mxGeometry x="330" y="340" width="140" height="30" as="geometry" />
        </mxCell>
        <mxCell id="YqlxQMFtvgsocmcOE6nz-23" value="&lt;font style=&quot;font-size: 18px;&quot;&gt;payload data&lt;/font&gt;" style="text;html=1;strokeColor=none;fillColor=none;align=center;verticalAlign=middle;whiteSpace=wrap;rounded=0;" vertex="1" parent="1">
          <mxGeometry x="407.5" y="260" width="125" height="30" as="geometry" />
        </mxCell>
        <mxCell id="YqlxQMFtvgsocmcOE6nz-24" value="&lt;font style=&quot;font-size: 18px;&quot;&gt;payload data&lt;/font&gt;" style="text;html=1;strokeColor=none;fillColor=none;align=center;verticalAlign=middle;whiteSpace=wrap;rounded=0;" vertex="1" parent="1">
          <mxGeometry x="547.5" y="260" width="125" height="30" as="geometry" />
        </mxCell>
      </root>
    </mxGraphModel>
  </diagram>
</mxfile>
